<?xml version="1.0" encoding="UTF-8" standalone="no"?>
<!DOCTYPE svg PUBLIC "-//W3C//DTD SVG 1.1//EN" "http://www.w3.org/Graphics/SVG/1.1/DTD/svg11.dtd">
<svg width="100%" height="100%" viewBox="0 0 250 250" version="1.1" xmlns="http://www.w3.org/2000/svg" xmlns:xlink="http://www.w3.org/1999/xlink" xml:space="preserve" xmlns:serif="http://www.serif.com/" style="fill-rule:evenodd;clip-rule:evenodd;stroke-linejoin:round;stroke-miterlimit:2;">
    <g id="Ebene1" transform="matrix(1.33457,0,0,1.33457,-42.7426,-43.2514)">
        <g transform="matrix(0.906489,0.422229,-0.422229,0.906489,65.9535,-41.1689)">
            <path d="M44.067,159.345L44.067,141.418C44.067,139.72 43.971,135.403 44.882,134.492C45.357,134.017 44.407,132.115 44.882,131.64C45.883,130.639 45.368,127.816 46.104,126.343C46.838,124.876 48.345,125.325 49.364,124.306C50.766,122.905 51.526,118.885 53.031,117.38C55.895,114.515 62.38,115.772 65.254,112.898C69.728,108.424 75.208,107.338 79.106,101.49C81.59,97.764 79.387,94.538 80.736,90.49C82.974,83.777 84.755,77.683 90.922,74.6C91.778,74.172 91.876,72.9 92.552,72.563C95.518,71.079 101.454,72.155 104.774,72.155C105.781,72.155 107.512,71.845 108.441,72.155C111.583,73.202 115.179,74.251 118.22,72.155C119.982,70.941 121.743,69.855 123.109,68.488C126.146,65.451 125.497,60.424 127.998,56.673C129.408,54.558 130.826,53.973 132.887,52.598C136.042,50.495 140.473,46.613 145.11,48.932C148.157,50.455 151.696,50.507 154.889,51.784C156.689,52.504 158.285,52.626 160.185,53.006C160.984,53.166 162.054,52.43 162.63,53.006C164.549,54.925 159.498,62.275 158.963,64.414C158.236,67.323 158.3,72.202 159.37,75.415C160.507,78.825 159.196,82.981 161.407,85.193C161.797,85.582 161.757,87.172 162.222,87.638C162.879,88.294 165.045,88.045 166.297,88.045C170.293,88.045 174.175,88.452 178.112,88.452C179.606,88.452 181.538,87.396 182.594,88.452C185.219,91.077 184.453,92.527 188.298,92.527C191.992,92.527 193.802,91.66 196.854,90.897C197.564,90.72 199.046,89.84 199.113,89.974C199.981,91.71 199.351,93.195 199.706,94.971C200.511,98.996 202.151,102.073 202.151,106.379C202.151,106.698 201.947,108.213 202.151,108.417C202.332,108.598 204.498,108.417 204.595,108.417C204.867,108.417 205.682,108.417 205.41,108.417C204.315,108.417 203.131,109.584 201.743,110.046C195.513,112.123 187.028,114.671 184.631,121.862C184.267,122.955 184.34,124.48 183.816,125.529C183.55,126.062 178.314,125.325 177.705,125.529C173.918,126.791 166.87,126.585 164.259,129.196C163.968,129.487 162.258,129.132 161.815,129.196C161.033,129.308 157.074,131.602 156.926,132.048C155.968,134.92 159.501,136.675 158.148,139.381C157.47,140.738 155.377,141.991 154.889,143.456C153.031,149.029 152.885,156.935 156.518,160.568C156.937,160.986 156.518,164.071 156.518,164.642C156.518,168.151 154.594,173.424 156.111,176.458C156.718,177.673 155.411,179.832 156.518,180.939C157.295,181.716 161.612,188.476 159.37,190.718C158.22,191.868 155.929,189.102 155.296,188.681C153.955,187.787 145.839,187.501 143.48,188.681C140.218,190.312 141.137,192.552 139.814,195.199C138.248,198.331 137.126,199.517 134.924,201.718C134.481,202.161 132.778,205.683 131.258,204.163C129.436,202.342 123.692,202.476 122.701,200.496C121.601,198.294 121.399,195.366 120.664,193.162C120.031,191.263 121.161,188.452 120.257,186.643C119.011,184.151 114.486,183.787 112.516,180.532C112.263,180.115 112.426,178.813 112.108,178.495C110.412,176.799 108.103,176.934 106.404,175.235C104.927,173.758 104.44,171.401 102.33,170.346C97.711,168.037 92.916,168.673 88.885,164.642C88.595,164.352 87.248,164.635 86.847,164.235C86.576,163.963 87.119,162.877 86.847,162.605C85.007,160.764 83.588,158.53 81.551,156.493C80.935,155.877 81.485,154.325 81.143,153.641C79.577,150.508 77.657,148.541 74.625,147.53C73.104,147.023 70.49,147.53 68.921,147.53C63.741,147.53 55.958,146.232 53.031,149.16C52.491,149.699 52.987,150.877 52.623,151.604C50.961,154.929 44.067,159.345 44.067,159.345Z" style="fill:none;stroke:black;stroke-width:6.24px;"/>
        </g>
        <g id="alert-outline" transform="matrix(3.1221,0,0,3.1221,184.608,191.245)">
            <g transform="matrix(1,0,0,1,-12,-12)">
                <path d="M12,2L1,21L23,21M12,6L19.53,19L4.47,19M11,10L11,14L13,14L13,10M11,16L11,18L13,18L13,16" style="fill-rule:nonzero;"/>
            </g>
        </g>
        <g transform="matrix(0.749304,0,0,0.749304,32.0272,32.4084)">
            <path d="M107.555,105.515C110.867,104.963 121.207,98.597 121.323,98.422C122.128,97.216 123.138,87.126 125,87.618C127.983,88.406 145.281,88.706 148.025,90.078C148.368,90.25 146.941,101.04 147.326,101.465C148.584,102.853 162.605,97.174 163.21,99.896C163.33,100.436 163.322,114.068 163.044,114.068C161.785,114.068 155.945,115.027 154.074,115.945C152.196,116.867 153.856,123.687 152.276,125C151.369,125.754 140.264,125.069 136.969,126.167C135.592,126.626 132.756,131.06 131.379,131.519C130.437,131.833 129.11,130.656 127.756,128.95C125.055,125.549 122.241,120.047 122.13,120.081C121.155,120.373 112.728,125.874 111.728,125.541C110.414,125.103 109.85,122.716 109.85,121.578C109.85,118.461 107.555,105.515 107.555,105.515Z"/>
            <path d="M107.555,105.515C110.867,104.963 121.207,98.597 121.323,98.422C122.128,97.216 123.138,87.126 125,87.618C127.983,88.406 145.281,88.706 148.025,90.078C148.368,90.25 146.941,101.04 147.326,101.465C148.584,102.853 162.605,97.174 163.21,99.896C163.33,100.436 163.322,114.068 163.044,114.068C161.785,114.068 155.945,115.027 154.074,115.945C152.196,116.867 153.856,123.687 152.276,125C151.369,125.754 140.264,125.069 136.969,126.167C135.592,126.626 132.756,131.06 131.379,131.519C130.437,131.833 129.11,130.656 127.756,128.95C125.055,125.549 122.241,120.047 122.13,120.081C121.155,120.373 112.728,125.874 111.728,125.541C110.414,125.103 109.85,122.716 109.85,121.578C109.85,118.461 107.555,105.515 107.555,105.515ZM130.435,96.612C130.164,97.812 129.897,98.951 129.732,99.574C129.287,101.26 128.667,102.431 128.257,103.045C128.147,103.211 127.429,104.408 125.541,105.635C124.342,106.415 120.573,108.584 116.806,110.488L116.972,111.545L117.241,113.356C118.498,112.68 119.48,112.175 119.735,112.099C120.351,111.914 125.859,110.298 129.307,115.811C129.598,116.277 130.459,117.9 131.559,119.723C132.568,118.985 133.536,118.527 134.333,118.261C136.006,117.704 139.088,117.313 142.431,117.196L144.881,117.119C145.019,115.902 145.268,114.815 145.589,113.935C146.195,112.278 147.085,110.988 148.149,110.007C144.519,109.946 142.224,108.245 141.152,107.062C140.567,106.417 139.071,104.682 138.937,101.46C138.911,100.819 139.011,99.189 139.15,97.378C136.489,97.161 133.301,96.89 130.435,96.612ZM124.297,95.928C123.977,95.884 123.695,95.84 123.455,95.798C123.216,95.755 123.02,95.714 122.872,95.675C123.349,95.801 123.824,95.887 124.297,95.928Z"/>
        </g>
    </g>
</svg>
