<?xml version="1.0" encoding="UTF-8" standalone="no"?>
<!DOCTYPE svg PUBLIC "-//W3C//DTD SVG 1.1//EN" "http://www.w3.org/Graphics/SVG/1.1/DTD/svg11.dtd">
<svg width="100%" height="100%" viewBox="0 0 250 250" version="1.1" xmlns="http://www.w3.org/2000/svg" xmlns:xlink="http://www.w3.org/1999/xlink" xml:space="preserve" xmlns:serif="http://www.serif.com/" style="fill-rule:evenodd;clip-rule:evenodd;stroke-linejoin:round;stroke-miterlimit:2;">
    <g id="Ebene1" transform="matrix(1.33457,0,0,1.33457,-42.7426,-43.2514)">
        <g transform="matrix(1,0,0,1,0.925782,-0.307537)">
            <path d="M89.068,72.045C89.232,71.744 89.516,71.243 89.698,71.001C90.106,70.461 90.595,70.05 91.155,69.77C92.701,68.997 94.849,68.665 97.167,68.656C99.84,68.646 102.779,69.033 104.774,69.033C106.052,69.033 108.248,68.8 109.429,69.193C110.765,69.639 112.191,70.11 113.612,70.221C114.586,70.297 115.563,70.194 116.448,69.584C118.047,68.483 119.662,67.52 120.901,66.281C122.016,65.165 122.338,63.632 122.727,62.086C123.342,59.642 123.948,57.119 125.4,54.941C127.081,52.42 128.698,51.639 131.155,50.001C132.854,48.868 134.912,47.28 137.154,46.263C140.073,44.94 143.255,44.513 146.506,46.139C149.477,47.624 152.936,47.64 156.048,48.885C157.555,49.488 158.909,49.592 160.469,49.883C160.879,49.808 161.935,49.631 162.437,49.679C163.349,49.766 164.154,50.115 164.837,50.798C166.036,51.997 166.551,54.149 165.782,56.785C164.933,59.702 162.361,63.693 161.992,65.171C161.38,67.619 161.431,71.724 162.332,74.427C162.989,76.398 162.999,78.578 163.104,80.591C163.151,81.506 163.034,82.404 163.615,82.985C163.913,83.283 164.204,83.685 164.424,84.205C164.492,84.366 164.571,84.638 164.645,84.929L166.297,84.923C170.293,84.923 174.175,85.33 178.112,85.33C178.55,85.33 179.035,85.164 179.512,85.068C180.237,84.922 180.95,84.836 181.6,84.868C182.831,84.931 183.912,85.356 184.802,86.245C185.757,87.2 186.347,88.024 186.825,88.714C186.959,88.908 187.165,89.188 187.265,89.322C187.453,89.348 187.913,89.405 188.298,89.405C191.67,89.405 193.311,88.564 196.097,87.868C196.483,87.772 197.153,87.361 197.527,87.199C197.98,87.002 198.353,86.912 198.569,86.878C200.568,86.565 201.497,87.761 201.905,88.578C202.474,89.715 202.67,90.781 202.714,91.843C202.747,92.659 202.589,93.466 202.767,94.359C203.546,98.249 205.007,101.31 205.24,105.294L205.456,105.294L205.483,105.295C209.135,105.315 209.803,106.866 209.224,108.417C209.793,109.938 209.161,111.459 205.688,111.535C205.331,111.746 203.722,112.678 202.73,113.008C199.786,113.989 196.301,115.062 193.277,116.759C190.758,118.173 188.537,120.018 187.593,122.849C187.422,123.363 187.405,124.004 187.305,124.607C187.167,125.444 186.95,126.242 186.609,126.925C186.309,127.524 185.688,128.336 184.379,128.675C183.921,128.794 183.082,128.87 182.08,128.839C180.916,128.803 178.851,128.666 178.258,128.625C176.273,129.207 173.601,129.506 171.061,129.935C169.218,130.246 167.406,130.464 166.467,131.403C166.05,131.82 165.323,132.3 164.247,132.408C163.832,132.449 162.908,132.389 162.364,132.345L160.082,133.65C160.121,133.707 160.158,133.763 160.188,133.822C160.413,134.267 160.655,134.704 160.859,135.145C161.672,136.898 161.983,138.693 160.94,140.778C160.537,141.584 159.843,142.402 159.054,143.19C158.764,143.478 158.463,143.767 158.19,144.062C158.067,144.195 157.876,144.445 157.831,144.505C156.877,147.397 156.438,150.997 156.924,154.096C157.19,155.788 157.7,157.334 158.726,158.36C159.124,158.758 159.657,159.556 159.784,160.772C159.901,161.888 159.64,164.144 159.64,164.642C159.64,166.517 159.151,168.867 158.839,171.15C158.641,172.606 158.387,174.028 158.903,175.061C159.239,175.732 159.406,176.501 159.402,177.341C159.4,177.867 159.279,178.855 159.215,179.337C160.284,180.79 162.385,184.258 162.954,187.164C163.419,189.538 162.906,191.597 161.578,192.925C160.303,194.2 158.693,194.466 156.939,193.762C155.91,193.348 154.296,191.957 153.685,191.409C153.008,191.326 149.828,190.959 147.832,191.055C146.603,191.114 145.471,191.176 144.877,191.473C143.764,192.029 143.803,192.828 143.613,193.641C143.395,194.575 143.124,195.559 142.606,196.596C140.881,200.046 139.65,201.404 137.269,203.788C136.932,204.262 135.272,206.543 134.068,207.164C132.431,208.008 130.708,208.029 129.05,206.371C128.722,206.043 128.089,205.979 127.458,205.808C126.157,205.455 124.742,205.162 123.605,204.762C121.774,204.118 120.501,203.077 119.909,201.892C118.745,199.564 118.48,196.481 117.702,194.15C117.33,193.033 117.294,191.707 117.394,190.341C117.432,189.828 117.484,189.308 117.499,188.804C117.507,188.529 117.573,188.258 117.464,188.04C117.336,187.782 117.04,187.665 116.762,187.493C116.283,187.196 115.747,186.923 115.2,186.635C113.187,185.572 111.138,184.285 109.845,182.148C109.657,181.838 109.464,180.942 109.34,180.268C108.751,179.915 108.088,179.769 107.471,179.516C106.306,179.037 105.191,178.437 104.197,177.443C103.429,176.675 102.839,175.743 102.265,174.791C101.901,174.185 101.631,173.487 100.934,173.139C98.814,172.079 96.644,171.729 94.551,171.148C92.068,170.458 89.678,169.519 87.447,167.569C87.104,167.542 86.716,167.501 86.484,167.445C85.699,167.259 85.082,166.885 84.64,166.442C84.218,166.02 83.89,165.477 83.736,164.788C83.69,164.585 83.694,164.205 83.715,163.821C82.288,162.203 81.027,160.385 79.343,158.701C78.765,158.123 78.372,157.373 78.209,156.471C78.123,155.998 78.128,155.077 78.137,154.624C77.034,152.559 75.723,151.187 73.637,150.492C73.194,150.344 72.587,150.419 71.981,150.456C70.872,150.524 69.757,150.652 68.921,150.652C65.883,150.652 61.93,150.182 58.636,150.434C57.563,150.517 56.563,150.594 55.827,150.957C55.771,151.629 55.653,152.527 55.416,153C54.281,155.27 52.802,158.121 50.831,160.065C49.08,161.793 46.967,162.875 44.475,162.875C43.509,162.875 42.646,162.436 42.073,161.747C41.384,161.174 40.945,160.311 40.945,159.345L40.945,141.418C40.945,140.114 40.914,137.403 41.225,135.551C41.353,134.79 41.567,134.125 41.821,133.577C41.73,132.928 41.604,131.867 41.676,131.419C41.781,130.769 42.026,130.232 42.357,129.796L42.587,127.73C42.701,126.686 42.93,125.711 43.312,124.947C43.856,123.858 44.581,123.203 45.385,122.741C45.899,122.446 46.955,122.088 47.255,121.989C47.821,121.317 48.134,120.002 48.614,118.857C49.243,117.36 49.987,116.008 50.823,115.172C52.378,113.618 54.653,112.809 57.152,112.327C58.468,112.073 59.849,111.896 61.104,111.57C61.849,111.377 62.558,111.178 63.046,110.691C65.011,108.726 67.139,107.34 69.275,105.993C71.844,104.373 74.45,102.847 76.509,99.758C77.558,98.185 77.25,96.71 77.176,95.189C77.089,93.386 77.099,91.528 77.774,89.502C80.236,82.116 82.482,75.575 89.068,72.045ZM159.436,56.041C157.396,55.64 155.674,55.46 153.729,54.682C150.456,53.373 146.838,53.286 143.714,51.724C142.327,51.031 140.977,51.386 139.732,51.95C137.81,52.821 136.075,54.226 134.619,55.196C132.952,56.307 131.736,56.694 130.596,58.405C129.277,60.383 129.045,62.795 128.422,64.961C127.801,67.12 126.913,69.099 125.317,70.696C123.824,72.189 121.917,73.399 119.991,74.726C116.126,77.389 111.568,76.477 107.564,75.153C107.363,75.165 105.489,75.277 104.774,75.277C102.785,75.277 99.856,74.89 97.191,74.9C96.171,74.904 95.197,74.929 94.423,75.168C93.978,75.831 93.114,76.994 92.318,77.392C86.922,80.09 85.656,85.604 83.698,91.477C83.157,93.098 83.409,94.56 83.466,95.985C83.563,98.384 83.38,100.709 81.704,103.222C79.485,106.551 76.842,108.553 74.091,110.331C71.854,111.777 69.532,113.036 67.461,115.106C65.902,116.665 63.625,117.475 61.127,117.958C59.809,118.212 58.428,118.39 57.173,118.714C56.43,118.907 55.723,119.103 55.238,119.588C54.56,120.266 54.211,121.687 53.71,122.893C53.086,124.397 52.36,125.726 51.571,126.514C50.866,127.22 49.45,127.807 48.804,128.05C48.757,128.319 48.771,128.634 48.745,128.942C48.687,129.625 48.63,130.308 48.516,130.911C48.396,131.549 48.205,132.125 47.953,132.626C48.043,133.279 48.158,134.281 48.088,134.713C47.988,135.336 47.758,135.855 47.448,136.281C47.407,136.509 47.304,137.127 47.269,137.57C47.159,138.976 47.189,140.556 47.189,141.418L47.189,154.77C48.196,153.478 48.98,151.914 49.649,150.571C49.652,150.153 49.673,149.254 49.78,148.823C49.96,148.095 50.306,147.469 50.823,146.952C52.44,145.335 55.055,144.446 58.158,144.208C61.605,143.944 65.742,144.408 68.921,144.408C70.762,144.408 73.828,143.973 75.612,144.568C79.455,145.849 81.95,148.274 83.936,152.245C84.174,152.721 84.336,153.31 84.376,153.984C84.39,154.218 84.385,154.614 84.377,154.931C86.097,156.785 87.407,158.749 89.055,160.397C89.389,160.731 89.664,161.141 89.839,161.639C90.375,161.836 90.785,162.127 91.092,162.434C93.056,164.398 95.286,164.905 97.531,165.476C99.586,165.997 101.668,166.524 103.726,167.554C105.066,168.223 106.023,169.191 106.803,170.301C107.438,171.202 107.85,172.266 108.612,173.028C109.314,173.73 110.22,173.878 111.043,174.216C112.208,174.694 113.323,175.294 114.316,176.287C114.665,176.637 114.996,177.122 115.201,177.764C115.305,178.089 115.397,178.838 115.445,179.288C116.366,180.466 117.858,180.962 119.05,181.609C120.845,182.583 122.288,183.724 123.049,185.247C123.635,186.419 123.802,187.835 123.727,189.329C123.677,190.316 123.355,191.362 123.626,192.175C124.275,194.12 124.437,196.677 125.308,198.698C125.71,198.839 126.728,199.188 127.416,199.358C128.952,199.737 130.506,200.198 131.744,200.803C131.833,200.681 131.912,200.571 131.965,200.49C132.277,200.017 132.554,199.673 132.717,199.511C134.648,197.58 135.647,196.55 137.021,193.803C137.597,192.652 137.642,191.577 137.941,190.624C138.502,188.836 139.42,187.22 142.084,185.888C143.79,185.035 147.975,184.642 151.414,184.838C153.152,184.936 154.702,185.226 155.773,185.556C155.183,184.362 154.548,183.385 154.311,183.147C153.396,182.232 152.976,181.097 152.936,179.809C152.916,179.151 153.08,177.885 153.139,177.46C152.453,175.849 152.297,173.85 152.49,171.718C152.708,169.302 153.396,166.668 153.396,164.642C153.396,164.337 153.492,162.737 153.544,161.914C152.103,160.103 151.173,157.722 150.756,155.064C150.117,150.992 150.665,146.255 151.927,142.468C152.253,141.49 152.935,140.519 153.797,139.62C154.318,139.076 154.997,138.61 155.309,138.069C155.271,137.964 155.202,137.786 155.15,137.679C154.956,137.276 154.731,136.877 154.53,136.467C153.726,134.831 153.286,133.095 153.964,131.06C154.077,130.721 154.507,129.854 155.568,129.075C157.018,128.009 160.555,126.223 161.369,126.105C161.611,126.071 162.467,126.113 163.069,126.15C164.449,125.202 166.306,124.526 168.383,124.086C171.222,123.485 174.536,123.294 176.717,122.567C176.986,122.477 177.571,122.355 178.382,122.373C178.982,122.386 180.254,122.45 181.303,122.507C181.392,121.928 181.504,121.37 181.669,120.874C183.122,116.515 186.342,113.491 190.222,111.314C193.014,109.747 196.146,108.628 199.006,107.669C199.004,107.084 199.022,106.528 199.028,106.355C199.022,102.287 197.406,99.39 196.645,95.584C196.551,95.116 196.503,94.665 196.481,94.222C193.795,94.955 191.839,95.649 188.298,95.649C184.97,95.649 183.73,94.75 182.661,93.555C182.155,92.989 181.765,92.186 180.873,91.178C180.618,91.224 180.299,91.284 180.082,91.329C179.404,91.471 178.731,91.574 178.112,91.574C174.175,91.574 170.293,91.167 166.297,91.167C165.282,91.167 163.748,91.273 162.658,91.097C161.486,90.908 160.587,90.418 160.015,89.845C159.609,89.44 159.227,88.845 158.986,88.085C158.885,87.768 158.762,87.187 158.691,86.831C157.653,85.531 157.147,83.919 156.957,82.102C156.77,80.311 157.019,78.233 156.408,76.402C155.168,72.68 155.091,67.027 155.934,63.657C156.272,62.306 158.273,58.958 159.422,56.078L159.436,56.041ZM158.774,178.785C158.758,178.765 158.742,178.748 158.726,178.732L158.774,178.785Z"/>
        </g>
        <g id="alert-outline" transform="matrix(3.1221,0,0,3.1221,184.608,191.245)">
            <g transform="matrix(1,0,0,1,-12,-12)">
                <path d="M12,2L1,21L23,21M12,6L19.53,19L4.47,19M11,10L11,14L13,14L13,10M11,16L11,18L13,18L13,16" style="fill-rule:nonzero;"/>
            </g>
        </g>
    </g>
</svg>
