<?xml version="1.0" encoding="UTF-8" standalone="no"?>
<!DOCTYPE svg PUBLIC "-//W3C//DTD SVG 1.1//EN" "http://www.w3.org/Graphics/SVG/1.1/DTD/svg11.dtd">
<svg width="100%" height="100%" viewBox="0 0 200 200" version="1.1" xmlns="http://www.w3.org/2000/svg" xmlns:xlink="http://www.w3.org/1999/xlink" xml:space="preserve" xmlns:serif="http://www.serif.com/" style="fill-rule:evenodd;clip-rule:evenodd;stroke-linecap:round;stroke-linejoin:round;stroke-miterlimit:1.5;">
    <g transform="matrix(1.19082,0,0,1.19082,30.7822,-29.8826)">
        <clipPath id="_clip1">
            <rect x="1" y="67" width="114.252" height="126.046"/>
        </clipPath>
        <g clip-path="url(#_clip1)">
            <path d="M0,0L0,0L0,144.257C1.166,147.932 1.292,149.569 4.146,152.724C4.799,154.277 5.626,155.323 6.836,156.517C7.563,157.234 9.076,159.088 9.658,159.825C10.196,160.506 10.93,162.07 11.378,162.647C13.579,165.475 14.601,165.952 17.156,167.851C18.701,168.99 19.721,170.218 21.83,170.983C23.946,171.406 25.612,173.236 27.387,174.246C28.02,174.606 28.981,175.23 29.416,175.746C30.357,176.866 30.315,178.567 31.709,178.744C32.351,178.825 32.988,178.278 33.65,178.171C34.601,178.002 35.945,177.82 37.222,177.906C37.971,177.963 38.776,178.329 39.603,178.48C41.359,178.799 42.205,178.723 43.264,179.979C45.797,179.395 47.166,180.782 48.203,182.052L50.938,182.052C51.331,181.909 51.239,181.3 51.731,181.258C54.383,181.015 57.204,180.115 59.978,179.891C60.793,179.82 61.71,179.994 62.492,179.891C63.05,179.81 63.618,179.27 64.212,179.318C64.706,179.354 65.115,179.909 65.579,179.979C67.432,180.262 70.227,178.013 71.754,177.686C72.19,177.593 72.669,177.731 73.121,177.686C76.504,177.358 79.828,175.635 82.735,174.246C85.007,173.159 87.047,172.115 89.218,171.071C89.95,170.714 90.861,170.544 91.511,170.144C92.486,169.535 93.218,168.354 94.025,167.498C95.278,166.177 96.044,164.808 97.818,164.103C102.55,158.476 105.223,150.765 107.873,142.581C108.045,142.05 108.211,141.409 108.446,140.861C108.798,140.037 109.298,139.731 109.372,138.479C109.544,135.447 109.142,132.327 109.02,128.998C108.933,126.776 109.297,124.494 109.152,122.559C109.032,121.032 108.449,119.576 108.446,118.104C108.445,117.699 108.608,117.27 108.578,116.87C108.523,116.068 108.009,115.089 107.873,114.091C107.774,113.422 107.935,112.704 107.784,112.151C107.617,111.554 107.024,111.178 106.726,110.563C106.146,109.386 105.685,107.9 105.006,106.55C104.36,105.267 103.463,104.091 102.977,103.022C102.505,101.977 102.624,100.833 101.125,100.728C100.242,99.419 98.718,98.629 97.685,97.421C97.407,97.093 97.38,96.635 97.112,96.274C96.303,95.203 94.827,94.035 93.584,92.966C92.289,91.853 91.068,90.458 89.923,89.747C89.479,89.47 88.78,89.489 88.203,89.174C87.4,88.742 86.84,87.919 86.13,87.454C83.925,86.004 81.219,85.252 78.28,84.278C76.464,83.679 74.554,83.033 72.547,82.558C70.227,82.014 67.952,81.694 65.314,81.28C64.74,81.186 64.103,80.83 63.506,80.839C62.754,80.844 61.486,81.498 60.419,81.765C57.502,82.49 55.558,83.095 52.745,83.793C47.888,85.011 44.705,86.793 40.882,89.306C38.62,90.788 35.655,92.618 34.223,94.334C32.838,95.99 31.461,97.884 30.209,99.714C28.934,101.578 27.847,103.559 27.034,105.756C26.964,106.066 26.439,105.925 26.24,106.109C25.824,110.046 24.207,113.935 24.168,118.016C24.152,119.679 24.127,121.757 24.52,123.397C24.698,124.119 25.259,124.629 25.535,125.337C26.442,127.676 26.222,130.147 27.122,132.305C28.27,135.063 31.013,137.829 32.988,140.199C33.658,140.998 34.235,142.057 35.017,142.713C36.045,143.566 37.567,144.243 38.942,145.007C43.129,147.341 48.407,150.448 54.465,149.196C55.393,149.718 56.528,150.211 57.905,150.034C58.705,149.932 59.281,149.075 60.199,148.667C60.825,148.389 62.651,147.734 63.374,147.609C63.793,147.538 64.373,147.723 64.785,147.609C66.03,147.264 67.717,145.101 68.534,144.301C71.584,142.936 73.821,140.041 75.149,136.98C75.585,135.978 75.669,134.902 76.075,133.761C76.338,133.038 77.033,132.421 77.134,131.6C77.265,130.531 76.931,130.357 77.002,129.527C77.059,128.902 77.311,128.674 77.354,128.292C77.638,126.1 76.922,123.57 76.208,121.985C76.033,121.59 75.637,121.269 75.414,120.839C74.964,120.016 74.772,119.233 74.267,118.59C72.774,116.67 71.208,115.844 68.975,115.017C65.33,113.653 58.079,115.253 59.273,119.472C59.717,121.042 61.464,120.948 62.801,121.985C64.707,123.471 65.043,126.962 64.521,130.365C64.35,131.487 63.633,131.821 62.933,132.614C61.817,133.883 61.92,133.977 59.978,134.466C57.387,135.117 56.276,135.566 53.672,134.819C52.771,134.568 51.754,134.54 51.158,134.334C49.837,133.872 47.645,131.72 46.704,130.585C46.132,129.902 45.6,128.994 45.116,128.071C43.953,125.843 43.19,124.666 42.911,121.192C42.682,118.373 42.651,116.584 43.705,114.003C44.419,112.249 45.054,110.353 45.998,109.196C47.59,107.253 49.92,106.422 50.937,103.948C53.891,103.198 55.968,101.558 58.479,100.376C60.185,100.903 61.875,99.377 63.154,100.508C63.6,100.384 63.346,99.545 63.947,99.582C68.425,99.445 72.677,99.559 75.414,101.169C75.85,101.233 75.953,100.986 76.428,101.081C76.799,101.576 77.547,101.539 78.016,101.875C78.604,102.307 78.857,103.155 79.383,103.595C80.243,104.309 81.356,104.619 82.161,105.094C83.789,106.047 85.243,107.687 86.263,109.416C86.95,110.588 87.368,112.24 88.777,112.944C88.891,113.945 89.023,114.827 89.438,115.811C89.764,116.587 90.487,117.144 90.717,117.884C91.174,119.384 91.018,121.414 91.291,123.264C91.443,124.252 92.098,125.441 92.084,126.351C92.076,127.051 91.54,127.844 91.423,128.733C91.217,130.356 91.501,132.145 91.158,133.319C90.78,134.604 89.755,135.659 89.35,136.98C88.625,139.355 88.31,141.669 87.277,143.507C86.426,145.037 85.028,146.47 83.837,147.829C82.636,149.202 81.11,150.232 79.868,151.489C79.189,152.179 78.762,153.102 78.016,153.694C77.189,154.353 75.967,154.759 74.84,155.37C73.798,155.936 72.838,156.81 71.842,157.355C70.943,157.847 69.569,158.22 68.313,158.722C67.187,159.171 65.799,160.218 65.006,160.31C63.906,160.445 62.177,159.72 60.64,159.869C58.469,160.073 56.414,161.357 54.818,161.456C53.614,161.541 52.999,161.015 52.393,160.442C51.413,160.436 50.941,160.177 50.011,160.53C49.327,160.29 49.07,159.473 48.423,159.295C47.674,159.093 46.663,159.401 45.91,159.295C43.227,158.925 40.605,156.921 38.016,155.855C36.105,155.071 34.269,154.695 33.649,152.636C29.692,150.571 26.212,148.055 25.314,142.934C24.885,142.651 24.219,142.922 23.727,142.934C23.488,142.687 23.882,142.429 23.815,142.007C22.396,141.474 22.363,139.581 20.639,139.361C20.586,138.802 21.154,138.472 20.948,138.126C19.75,135.614 18.591,132.573 17.552,129.527C17.226,128.57 16.608,127.585 16.494,126.704C16.298,125.198 16.916,123.383 16.847,121.765C16.81,120.867 16.744,119.268 16.494,118.589C16.371,118.249 16.046,118.308 16.053,118.016C16.088,112.631 17.236,107.977 18.787,103.815C19.494,101.917 20.627,100.103 21.521,98.082C23.397,93.854 25.763,91.106 29.327,88.512C29.893,88.099 30.567,87.685 30.915,87.233C31.137,86.941 31.182,86.327 31.488,85.866C31.703,85.561 32.348,85.036 32.856,84.587C34.47,83.147 35.971,82.24 38.457,81.059C41.307,79.707 44.218,78.159 47.145,76.693C49,75.761 51.126,74.298 53.319,74.091C53.756,74.055 54.239,74.179 54.686,74.179C58.577,74.187 62.45,72.682 66.241,72.591C68.946,72.529 71.852,72.734 74.355,73.032C75.798,73.207 77.151,74.071 78.369,73.517C79.399,74.504 80.868,74.319 82.029,74.885C82.742,75.236 83.195,75.924 83.837,76.252C84.166,76.418 84.611,76.438 84.984,76.604C85.318,76.766 85.615,77.083 85.91,77.178C86.378,77.335 86.928,77.219 87.409,77.398C87.985,77.604 88.389,78.209 88.997,78.413C89.66,78.629 90.478,78.435 91.158,78.677C92.095,79.001 93.113,80.704 95.083,80.265C95.768,81.48 96.752,82.38 98.391,82.647C98.333,83.16 98.424,83.525 98.479,83.926C99.515,84.863 100.922,84.751 102.051,85.293C103.05,85.764 104.256,87.093 105.138,88.027C107.934,90.988 110.423,94.665 112.9,97.774L112.9,98.92C113.758,99.619 113.959,100.531 114.4,101.522C114.812,102.451 115.565,103.224 116.252,103.992L116.252,0L116.252,0L116.252,200.046L116.252,200.046L116.252,150.255C115.607,150.96 114.848,151.653 114.532,152.636C114.364,153.163 114.429,153.79 114.268,154.268C113.772,155.737 112.177,157.299 111.533,158.943C111.306,159.519 111.322,160.079 111.092,160.53C110.7,161.301 109.729,162.049 109.019,162.824C107.099,164.912 105.794,168.292 103.419,170.145C102.497,170.864 101.345,171.465 100.331,172.217C99.353,172.943 98.393,173.794 97.465,174.378C96.615,174.905 95.567,175.134 94.73,175.657C93.874,176.191 93.384,177.171 92.569,177.686C91.768,178.193 90.388,178.32 89.218,178.833C88.291,179.242 87.395,179.969 86.483,180.42C82.531,182.395 78.041,183.361 73.341,184.654C70.945,185.315 68.612,186.343 66.461,186.506C65.617,186.573 64.702,186.471 63.859,186.506C61.652,186.604 59.487,186.985 57.465,186.859C55.808,186.756 53.991,186.153 52.084,185.933C50.155,185.707 48.097,186.339 46.219,185.58C45.073,185.846 43.932,186.113 42.69,185.801C42.161,185.665 41.716,185.125 41.191,184.919C40.262,184.549 39.065,184.412 38.104,183.993C37.575,183.764 37.226,183.247 36.737,183.066C36.126,182.835 35.375,182.897 34.796,182.714C33.454,182.285 32.366,181.581 31.048,181.258C28.207,181.986 25.665,180.622 23.242,180.2C21.638,178.481 18.664,177.825 17.861,175.305C17.033,174.729 16.73,174.231 15.833,173.937C15.298,173.76 15.017,173.247 14.465,173.144C12.425,172.765 11.056,171.472 9.438,170.056C8.202,168.97 6.522,168.382 5.513,167.19C4.845,166.397 4.295,165.156 3.572,164.103C2.464,162.485 1.176,160.82 -0,159.163L-0,0L0,0Z" style="fill:white;stroke:white;stroke-width:0.84px;"/>
        </g>
    </g>
    <g transform="matrix(1.19082,0,0,1.19082,30.8609,-1.30289)">
        <path d="M36.649,6.88L44.058,6.88L49.218,31.092L54.333,6.88L61.787,6.88L66.947,31.092L72.106,6.88L79.471,6.88L72.371,40.177L63.463,40.177L58.038,14.863L52.658,40.177L43.749,40.177L36.649,6.88Z" style="fill:white;stroke:white;stroke-width:0.84px;"/>
    </g>
    <g transform="matrix(1.19082,0,0,1.19082,30.8609,-1.30289)">
        <path d="M7.806,6.88L15.965,6.88C20.512,6.88 23.886,7.261 26.108,7.983C28.327,8.704 30.251,9.919 31.842,11.643C33.253,13.143 34.288,14.887 34.973,16.847C35.656,18.812 36.031,21.025 36.031,23.506C36.031,26.02 35.657,28.238 34.973,30.21C34.29,32.177 33.253,33.915 31.842,35.414C30.237,37.143 28.308,38.353 26.064,39.074C23.819,39.796 20.45,40.177 15.965,40.177L7.806,40.177L7.806,6.88ZM15.568,13.363L15.568,33.694L18.302,33.694C21.451,33.694 23.873,32.831 25.535,31.092C27.2,29.353 28.049,26.821 28.049,23.506C28.049,20.211 27.192,17.69 25.535,15.965C23.88,14.241 21.466,13.363 18.302,13.363L15.568,13.363Z" style="fill:white;stroke:white;stroke-width:0.84px;"/>
    </g>
    <g transform="matrix(1.19082,0,0,1.19082,30.8609,-1.30289)">
        <path d="M82.647,6.88L90.806,6.88C95.353,6.88 98.772,7.261 100.993,7.983C103.213,8.704 105.093,9.919 106.682,11.643C108.093,13.143 109.13,14.887 109.813,16.847C110.496,18.812 110.872,21.025 110.872,23.506C110.872,26.02 110.498,28.238 109.813,30.21C109.132,32.177 108.093,33.915 106.682,35.414C105.079,37.143 103.149,38.353 100.905,39.074C98.662,39.796 95.293,40.177 90.806,40.177L82.647,40.177L82.647,6.88ZM90.409,13.363L90.409,33.694L93.143,33.694C96.291,33.694 98.713,32.831 100.376,31.092C102.041,29.353 102.889,26.821 102.889,23.506C102.889,20.211 102.032,17.69 100.376,15.965C98.719,14.241 96.307,13.363 93.143,13.363L90.409,13.363Z" style="fill:white;stroke:white;stroke-width:0.84px;"/>
    </g>
</svg>
